<?xml version="1.0" encoding="UTF-8"?><svg xmlns="http://www.w3.org/2000/svg" viewBox="0 0 384 384"><defs><style>.d{fill:#00c16e;}.e{fill:none;}</style></defs><g id="a"/><g id="b"><g id="c"><g><path class="e" d="M0,0c128,0,256,0,384,0,0,128,0,256,0,384-128,0-256,0-384,0C0,256,0,128,0,0ZM144.25,227.19c-1.32-1.82-1.99-3.06-2.94-4.02-17.52-17.57-35.04-35.15-52.65-52.64-10.2-10.13-24.44-10.12-34.76-.12-3.4,3.3-6.73,6.67-10.06,10.05-10.55,10.72-10.58,24.87,.06,35.55,29.5,29.58,59.04,59.12,88.65,88.6,1.88,1.88,4.3,3.56,6.78,4.43,7.01,2.46,12.77,.02,17.88-5.11,45.89-45.99,91.85-91.92,137.8-137.86,15.26-15.26,30.55-30.47,45.75-45.78,10.77-10.84,10.7-24.9-.05-35.83-3.23-3.29-6.42-6.64-9.83-9.74-2.1-1.91-4.4-3.75-6.91-5.01-9.73-4.9-20.13-2.75-28.62,5.73-49.13,49.11-98.24,98.23-147.35,147.36-1.06,1.06-1.95,2.27-3.77,4.4Z"/><path class="d" d="M144.25,227.19c1.81-2.13,2.71-3.35,3.77-4.4,49.11-49.13,98.22-98.25,147.35-147.36,8.49-8.49,18.89-10.64,28.62-5.73,2.51,1.27,4.82,3.11,6.91,5.01,3.41,3.1,6.59,6.45,9.83,9.74,10.75,10.93,10.81,24.99,.05,35.83-15.2,15.31-30.5,30.53-45.75,45.78-45.94,45.94-91.9,91.87-137.8,137.86-5.12,5.13-10.87,7.57-17.88,5.11-2.48-.87-4.9-2.55-6.78-4.43-29.61-29.47-59.15-59.02-88.65-88.6-10.64-10.67-10.61-24.83-.06-35.55,3.32-3.38,6.66-6.75,10.06-10.05,10.31-10,24.55-10.01,34.76,.12,17.61,17.49,35.13,35.07,52.65,52.64,.96,.96,1.63,2.2,2.94,4.02Z"/></g></g></g></svg>